# xmcd
#
# Track frame offsets:
#	150
#	16427
#	31366
#	46994
#	62854
#	78672
#	93039
#	107251
#	122060
#	135843
#	150396
#	168632
#	185335
#	198891
#	213670
#	227683
#	243218
#
# Disc length: 3442 seconds
#
# Revision: 1
# Processed by: cddbd v1.5.2PL0 Copyright (c) Steve Scherf et al.
# Submitted via: audiograbber 1.81.02
#
DISCID=d20d7011
DTITLE=Dean John - Always On My Mind - CD2
DYEAR=2002
DGENRE=Rock and Roll
TTITLE0=Heartbreak Hotel
TTITLE1=She's Not You
TTITLE2=King Creole
TTITLE3=Don't
TTITLE4=Goodluck Charm
TTITLE5=Wooden Heart
TTITLE6=Gotta Lot Of Living To Do
TTITLE7=Falling In Love
TTITLE8=G. I. Blues
TTITLE9=Return To Sender
TTITLE10=Elvis Medley
TTITLE11=Love Me Tender
TTITLE12=Jim Said Hello
TTITLE13=Stuck On You
TTITLE14=Devil In Disquise
TTITLE15=Didya Ever
TTITLE16=Blue Christmas
EXTD=
EXTT0=
EXTT1=
EXTT2=
EXTT3=
EXTT4=
EXTT5=
EXTT6=
EXTT7=
EXTT8=
EXTT9=
EXTT10=
EXTT11=
EXTT12=
EXTT13=
EXTT14=
EXTT15=
EXTT16=
PLAYORDER=
